{
	"asset":{
		"generator":"Khronos glTF Blender I/O v4.2.70",
		"version":"2.0"
	},
	"scene":0,
	"scenes":[
		{
			"name":"Scene",
			"nodes":[
				0,
				1,
				2,
				19,
				26,
				27,
				28,
				29,
				46,
				47,
				48
			]
		}
	],
	"nodes":[
		{
			"name":"TracksCurve"
		},
		{
			"mesh":0,
			"name":"Tracks",
			"scale":[
				0.15315836668014526,
				0.15315836668014526,
				0.15315836668014526
			]
		},
		{
			"name":"Empty",
			"scale":[
				4.401950836181641,
				4.401950836181641,
				4.401950836181641
			],
			"translation":[
				0.9011002779006958,
				0,
				0.040274471044540405
			]
		},
		{
			"mesh":1,
			"name":"City Prefab A",
			"rotation":[
				0.5731679797172546,
				-0.41409963369369507,
				0.41409963369369507,
				0.5731679797172546
			],
			"scale":[
				15.20944595336914,
				15.209446907043457,
				15.209446907043457
			],
			"translation":[
				13.73562240600586,
				0,
				-34.265533447265625
			]
		},
		{
			"mesh":2,
			"name":"City Prefab B",
			"rotation":[
				0.5918407440185547,
				-0.3869425058364868,
				0.38694247603416443,
				0.5918408036231995
			],
			"scale":[
				11.337721824645996,
				11.337722778320312,
				11.337722778320312
			],
			"translation":[
				-14.516845703125,
				0,
				-33.94194412231445
			]
		},
		{
			"mesh":1,
			"name":"City Prefab A",
			"rotation":[
				0.6977908611297607,
				-0.11440224200487137,
				0.11440227180719376,
				0.6977909207344055
			],
			"scale":[
				12.054479598999023,
				12.05448055267334,
				12.054479598999023
			],
			"translation":[
				-25.734466552734375,
				0,
				13.735617637634277
			]
		},
		{
			"mesh":2,
			"name":"City Prefab B",
			"rotation":[
				0.6426439881324768,
				-0.29497241973876953,
				0.2949724495410919,
				0.6426439881324768
			],
			"scale":[
				15.103013038635254,
				15.10301399230957,
				15.103012084960938
			],
			"translation":[
				-33.94194030761719,
				0,
				-14.516840934753418
			]
		},
		{
			"mesh":1,
			"name":"City Prefab A",
			"rotation":[
				0.5264499187469482,
				0.47207048535346985,
				-0.4720704257488251,
				0.526449978351593
			],
			"scale":[
				13.830272674560547,
				13.83027458190918,
				13.830272674560547
			],
			"translation":[
				-13.735620498657227,
				0,
				25.734466552734375
			]
		},
		{
			"mesh":2,
			"name":"City Prefab B",
			"rotation":[
				0.6837265491485596,
				-0.18032759428024292,
				0.1803276091814041,
				0.6837264895439148
			],
			"scale":[
				15.5286226272583,
				15.5286226272583,
				15.528620719909668
			],
			"translation":[
				13.73562240600586,
				0,
				-34.265533447265625
			]
		},
		{
			"mesh":1,
			"name":"City Prefab A",
			"rotation":[
				0.6755549311637878,
				0.2088671624660492,
				-0.208867147564888,
				0.6755549907684326
			],
			"scale":[
				12.314043045043945,
				12.314043998718262,
				12.314043998718262
			],
			"translation":[
				14.516845703125,
				0,
				33.94194412231445
			]
		},
		{
			"mesh":2,
			"name":"City Prefab B",
			"rotation":[
				0.5352450013160706,
				0.46207451820373535,
				-0.46207448840141296,
				0.5352449417114258
			],
			"scale":[
				11.16915225982666,
				11.16915225982666,
				11.169151306152344
			],
			"translation":[
				27.909564971923828,
				0,
				8.484463691711426
			]
		},
		{
			"mesh":1,
			"name":"City Prefab A",
			"rotation":[
				0.6619060039520264,
				-0.24875783920288086,
				0.24875785410404205,
				0.6619060039520264
			],
			"scale":[
				12.696955680847168,
				12.696956634521484,
				12.696954727172852
			],
			"translation":[
				13.735614776611328,
				0,
				34.265533447265625
			]
		},
		{
			"mesh":2,
			"name":"City Prefab B",
			"rotation":[
				0.49857327342033386,
				0.5014227032661438,
				-0.501422643661499,
				0.4985732436180115
			],
			"scale":[
				14.876505851745605,
				14.876505851745605,
				14.876503944396973
			],
			"translation":[
				27.909564971923828,
				0,
				8.484463691711426
			]
		},
		{
			"mesh":1,
			"name":"City Prefab A",
			"rotation":[
				0.5606895089149475,
				0.4308449327945709,
				-0.43084490299224854,
				0.5606894493103027
			],
			"scale":[
				13.629190444946289,
				13.629190444946289,
				13.629190444946289
			],
			"translation":[
				13.735620498657227,
				0,
				-25.734466552734375
			]
		},
		{
			"mesh":2,
			"name":"City Prefab B",
			"rotation":[
				0.6881034970283508,
				-0.16283006966114044,
				0.16283009946346283,
				0.6881034970283508
			],
			"scale":[
				11.72610855102539,
				11.726109504699707,
				11.72610855102539
			],
			"translation":[
				13.735617637634277,
				0,
				25.734468460083008
			]
		},
		{
			"mesh":1,
			"name":"City Prefab A",
			"rotation":[
				0.707013726234436,
				-0.011472037062048912,
				0.011472060345113277,
				0.707013726234436
			],
			"scale":[
				12.646092414855957,
				12.646093368530273,
				12.64609146118164
			],
			"translation":[
				-34.265533447265625,
				0,
				13.735617637634277
			]
		},
		{
			"mesh":2,
			"name":"City Prefab B",
			"rotation":[
				0.5490705966949463,
				-0.44555753469467163,
				0.4455575942993164,
				0.5490705370903015
			],
			"scale":[
				12.910944938659668,
				12.910945892333984,
				12.910943984985352
			],
			"translation":[
				-13.735617637634277,
				0,
				-25.734468460083008
			]
		},
		{
			"mesh":1,
			"name":"City Prefab A",
			"rotation":[
				0.700365424156189,
				-0.09740738570690155,
				0.09740740805864334,
				0.7003654837608337
			],
			"scale":[
				11.273957252502441,
				11.273958206176758,
				11.273957252502441
			],
			"translation":[
				33.94194412231445,
				0,
				-14.516840934753418
			]
		},
		{
			"mesh":2,
			"name":"City Prefab B",
			"rotation":[
				0.541279137134552,
				0.4549911618232727,
				-0.4549911320209503,
				0.541279137134552
			],
			"scale":[
				15.013932228088379,
				15.013932228088379,
				15.013931274414062
			],
			"translation":[
				-13.735620498657227,
				0,
				25.734466552734375
			]
		},
		{
			"children":[
				3,
				4,
				5,
				6,
				7,
				8,
				9,
				10,
				11,
				12,
				13,
				14,
				15,
				16,
				17,
				18
			],
			"mesh":3,
			"name":"CityPlane.001",
			"scale":[
				0.6399999856948853,
				0.6399999856948853,
				0.6399999856948853
			]
		},
		{
			"mesh":1,
			"name":"City Prefab A",
			"rotation":[
				0.6869518160820007,
				-0.16762223839759827,
				0.16762226819992065,
				0.6869518756866455
			],
			"scale":[
				14.730381965637207,
				14.73038387298584,
				14.730386734008789
			],
			"translation":[
				-8.484467506408691,
				0,
				-27.90956687927246
			]
		},
		{
			"mesh":1,
			"name":"City Prefab A",
			"rotation":[
				0.5544619560241699,
				-0.43883016705513,
				0.4388301968574524,
				0.5544619560241699
			],
			"scale":[
				17.831003189086914,
				17.831003189086914,
				17.831005096435547
			],
			"translation":[
				-25.73446273803711,
				0,
				-13.735617637634277
			]
		},
		{
			"mesh":1,
			"name":"City Prefab A",
			"rotation":[
				0.5904121398925781,
				-0.38911890983581543,
				0.38911890983581543,
				0.5904121398925781
			],
			"scale":[
				22.7222900390625,
				22.7222900390625,
				22.7222957611084
			],
			"translation":[
				-8.484466552734375,
				0,
				27.909564971923828
			]
		},
		{
			"mesh":1,
			"name":"City Prefab A",
			"rotation":[
				0.6954235434532166,
				0.12800796329975128,
				-0.1280079185962677,
				0.6954236030578613
			],
			"scale":[
				24.68915557861328,
				24.689159393310547,
				24.689167022705078
			],
			"translation":[
				-27.909564971923828,
				0,
				-8.484464645385742
			]
		},
		{
			"mesh":1,
			"name":"City Prefab A",
			"rotation":[
				0.6122417449951172,
				0.35377973318099976,
				-0.35377973318099976,
				0.6122416853904724
			],
			"scale":[
				24.486724853515625,
				24.486724853515625,
				24.48673439025879
			],
			"translation":[
				27.909564971923828,
				0,
				8.484464645385742
			]
		},
		{
			"mesh":1,
			"name":"City Prefab A",
			"rotation":[
				0.6467001438140869,
				0.2859703600406647,
				-0.2859703600406647,
				0.6467000842094421
			],
			"scale":[
				23.3704776763916,
				23.370479583740234,
				23.370485305786133
			],
			"translation":[
				33.94194030761719,
				0,
				-14.516841888427734
			]
		},
		{
			"children":[
				20,
				21,
				22,
				23,
				24,
				25
			],
			"mesh":4,
			"name":"CityPlane",
			"rotation":[
				0,
				0.07237964868545532,
				0,
				0.9973771572113037
			],
			"scale":[
				0.3158441185951233,
				0.31584399938583374,
				0.3158441185951233
			],
			"translation":[
				0,
				-2.434828042984009,
				0
			]
		},
		{
			"mesh":5,
			"name":"StartPlanes",
			"scale":[
				0.15315836668014526,
				0.15315836668014526,
				0.15315836668014526
			],
			"translation":[
				8.885125160217285,
				0,
				-6.997798442840576
			]
		},
		{
			"mesh":5,
			"name":"StartPlanes.001",
			"scale":[
				0.15315836668014526,
				0.15315836668014526,
				0.15315836668014526
			],
			"translation":[
				8.885125160217285,
				0,
				-6.6908464431762695
			]
		},
		{
			"mesh":5,
			"name":"StartPlanes.002",
			"scale":[
				0.15315836668014526,
				0.15315836668014526,
				0.15315836668014526
			],
			"translation":[
				8.885125160217285,
				0,
				-6.384765148162842
			]
		},
		{
			"mesh":1,
			"name":"City Prefab A",
			"rotation":[
				0.40782830119132996,
				-0.5776470899581909,
				0.5776470899581909,
				0.40782830119132996
			],
			"scale":[
				13.352264404296875,
				13.352264404296875,
				13.352265357971191
			],
			"translation":[
				13.735625267028809,
				0,
				-34.265533447265625
			]
		},
		{
			"mesh":2,
			"name":"City Prefab B",
			"rotation":[
				0.4336506426334381,
				-0.5585222244262695,
				0.5585222840309143,
				0.4336506426334381
			],
			"scale":[
				9.9533052444458,
				9.953306198120117,
				9.953306198120117
			],
			"translation":[
				-14.516843795776367,
				0,
				-33.94194793701172
			]
		},
		{
			"mesh":1,
			"name":"City Prefab A",
			"rotation":[
				0.6190212965011597,
				-0.34177854657173157,
				0.34177854657173157,
				0.6190213561058044
			],
			"scale":[
				10.582540512084961,
				10.582541465759277,
				10.582541465759277
			],
			"translation":[
				-25.734466552734375,
				0,
				13.735616683959961
			]
		},
		{
			"mesh":2,
			"name":"City Prefab B",
			"rotation":[
				0.5098064541816711,
				-0.48999735713005066,
				0.48999738693237305,
				0.5098065137863159
			],
			"scale":[
				13.258824348449707,
				13.258825302124023,
				13.258827209472656
			],
			"translation":[
				-33.94194030761719,
				0,
				-14.516841888427734
			]
		},
		{
			"mesh":1,
			"name":"City Prefab A",
			"rotation":[
				0.6600996255874634,
				0.25351232290267944,
				-0.25351235270500183,
				0.6600995659828186
			],
			"scale":[
				12.141498565673828,
				12.141499519348145,
				12.141498565673828
			],
			"translation":[
				-13.735621452331543,
				0,
				25.734466552734375
			]
		},
		{
			"mesh":2,
			"name":"City Prefab B",
			"rotation":[
				0.584613561630249,
				-0.3977774381637573,
				0.3977774679660797,
				0.5846136808395386
			],
			"scale":[
				13.632464408874512,
				13.632464408874512,
				13.632465362548828
			],
			"translation":[
				13.735625267028809,
				0,
				-34.265533447265625
			]
		},
		{
			"mesh":1,
			"name":"City Prefab A",
			"rotation":[
				0.7060884237289429,
				-0.03793540596961975,
				0.037935394793748856,
				0.7060884833335876
			],
			"scale":[
				10.810410499572754,
				10.81041145324707,
				10.810410499572754
			],
			"translation":[
				14.516843795776367,
				0,
				33.94194793701172
			]
		},
		{
			"mesh":2,
			"name":"City Prefab B",
			"rotation":[
				0.6646422743797302,
				0.24135176837444305,
				-0.24135173857212067,
				0.6646422743797302
			],
			"scale":[
				9.805317878723145,
				9.805316925048828,
				9.805317878723145
			],
			"translation":[
				27.90956687927246,
				0,
				8.484465599060059
			]
		},
		{
			"mesh":1,
			"name":"City Prefab A",
			"rotation":[
				0.5423994660377502,
				-0.453654944896698,
				0.4536549746990204,
				0.5423994660377502
			],
			"scale":[
				11.146566390991211,
				11.146566390991211,
				11.146566390991211
			],
			"translation":[
				13.735613822937012,
				0,
				34.265533447265625
			]
		},
		{
			"mesh":2,
			"name":"City Prefab B",
			"rotation":[
				0.6449264287948608,
				0.289948046207428,
				-0.2899480164051056,
				0.6449264883995056
			],
			"scale":[
				13.059977531433105,
				13.059977531433105,
				13.059977531433105
			],
			"translation":[
				27.90956687927246,
				0,
				8.484465599060059
			]
		},
		{
			"mesh":1,
			"name":"City Prefab A",
			"rotation":[
				0.6770176887512207,
				0.2040763646364212,
				-0.2040763795375824,
				0.6770175695419312
			],
			"scale":[
				11.964969635009766,
				11.964969635009766,
				11.964969635009766
			],
			"translation":[
				13.735621452331543,
				0,
				-25.734466552734375
			]
		},
		{
			"mesh":2,
			"name":"City Prefab B",
			"rotation":[
				0.5943248271942139,
				-0.383116215467453,
				0.3831162452697754,
				0.5943248867988586
			],
			"scale":[
				10.294267654418945,
				10.294267654418945,
				10.294267654418945
			],
			"translation":[
				13.735618591308594,
				0,
				25.734468460083008
			]
		},
		{
			"mesh":1,
			"name":"City Prefab A",
			"rotation":[
				0.6613162159919739,
				-0.25032150745391846,
				0.25032150745391846,
				0.6613162755966187
			],
			"scale":[
				11.101911544799805,
				11.101913452148438,
				11.101913452148438
			],
			"translation":[
				-34.265533447265625,
				0,
				13.735616683959961
			]
		},
		{
			"mesh":2,
			"name":"City Prefab B",
			"rotation":[
				0.3756684362888336,
				-0.5990603566169739,
				0.5990602970123291,
				0.375668466091156
			],
			"scale":[
				11.334426879882812,
				11.334426879882812,
				11.334425926208496
			],
			"translation":[
				-13.735618591308594,
				0,
				-25.734468460083008
			]
		},
		{
			"mesh":1,
			"name":"City Prefab A",
			"rotation":[
				0.6269473433494568,
				-0.32701224088668823,
				0.32701224088668823,
				0.6269474029541016
			],
			"scale":[
				9.89732551574707,
				9.89732551574707,
				9.89732551574707
			],
			"translation":[
				33.94194412231445,
				0,
				-14.516839981079102
			]
		},
		{
			"mesh":2,
			"name":"City Prefab B",
			"rotation":[
				0.6676841378211975,
				0.23280440270900726,
				-0.23280438780784607,
				0.6676841378211975
			],
			"scale":[
				13.180621147155762,
				13.180623054504395,
				13.180624008178711
			],
			"translation":[
				-13.735621452331543,
				0,
				25.734466552734375
			]
		},
		{
			"children":[
				30,
				31,
				32,
				33,
				34,
				35,
				36,
				37,
				38,
				39,
				40,
				41,
				42,
				43,
				44,
				45
			],
			"mesh":6,
			"name":"CityPlane.002",
			"rotation":[
				0,
				0.3206343948841095,
				0,
				0.9472030401229858
			],
			"scale":[
				1.8225460052490234,
				1.8225457668304443,
				1.8225460052490234
			],
			"translation":[
				0,
				6.185884475708008,
				0
			]
		},
		{
			"mesh":1,
			"name":"City Prefab A",
			"translation":[
				0,
				-16.591495513916016,
				0
			]
		},
		{
			"mesh":2,
			"name":"City Prefab B",
			"translation":[
				2.273117780685425,
				-16.591495513916016,
				0
			]
		}
	],
	"materials":[
		{
			"alphaMode":"BLEND",
			"doubleSided":true,
			"name":"Track",
			"pbrMetallicRoughness":{
				"baseColorTexture":{
					"index":0
				}
			}
		}
	],
	"meshes":[
		{
			"name":"Cube",
			"primitives":[
				{
					"attributes":{
						"POSITION":0,
						"NORMAL":1,
						"TEXCOORD_0":2
					},
					"indices":3,
					"material":0
				}
			]
		},
		{
			"name":"Plane",
			"primitives":[
				{
					"attributes":{
						"POSITION":4,
						"NORMAL":5,
						"TEXCOORD_0":6
					},
					"indices":7,
					"material":0
				}
			]
		},
		{
			"name":"Plane.003",
			"primitives":[
				{
					"attributes":{
						"POSITION":8,
						"NORMAL":9,
						"TEXCOORD_0":10
					},
					"indices":11,
					"material":0
				}
			]
		},
		{
			"name":"Plane.001",
			"primitives":[
				{
					"attributes":{
						"POSITION":12,
						"NORMAL":13,
						"TEXCOORD_0":14
					},
					"indices":15,
					"material":0
				}
			]
		},
		{
			"name":"Plane.002",
			"primitives":[
				{
					"attributes":{
						"POSITION":16,
						"NORMAL":17,
						"TEXCOORD_0":18
					},
					"indices":19,
					"material":0
				}
			]
		},
		{
			"name":"Cube.002",
			"primitives":[
				{
					"attributes":{
						"POSITION":20,
						"NORMAL":21,
						"TEXCOORD_0":22
					},
					"indices":23,
					"material":0
				}
			]
		},
		{
			"name":"Plane.004",
			"primitives":[
				{
					"attributes":{
						"POSITION":24,
						"NORMAL":25,
						"TEXCOORD_0":26
					},
					"indices":15,
					"material":0
				}
			]
		}
	],
	"textures":[
		{
			"sampler":0,
			"source":0
		}
	],
	"images":[
		{
			"mimeType":"image/png",
			"name":"Track",
			"uri":"Track.png"
		}
	],
	"accessors":[
		{
			"bufferView":0,
			"componentType":5126,
			"count":93240,
			"max":[
				108.98612213134766,
				7.522976398468018,
				43.7703857421875
			],
			"min":[
				-63.872802734375,
				0.3423941731452942,
				-48.836116790771484
			],
			"type":"VEC3"
		},
		{
			"bufferView":1,
			"componentType":5126,
			"count":93240,
			"type":"VEC3"
		},
		{
			"bufferView":2,
			"componentType":5126,
			"count":93240,
			"type":"VEC2"
		},
		{
			"bufferView":3,
			"componentType":5125,
			"count":167832,
			"type":"SCALAR"
		},
		{
			"bufferView":4,
			"componentType":5126,
			"count":1134,
			"max":[
				1.0488948822021484,
				1.054105520248413,
				0.7462033033370972
			],
			"min":[
				-0.9999999403953552,
				-0.950080394744873,
				-1.0586925745010376
			],
			"type":"VEC3"
		},
		{
			"bufferView":5,
			"componentType":5126,
			"count":1134,
			"type":"VEC3"
		},
		{
			"bufferView":6,
			"componentType":5126,
			"count":1134,
			"type":"VEC2"
		},
		{
			"bufferView":7,
			"componentType":5123,
			"count":2148,
			"type":"SCALAR"
		},
		{
			"bufferView":8,
			"componentType":5126,
			"count":958,
			"max":[
				1.0488948822021484,
				1.054105520248413,
				0.7652949690818787
			],
			"min":[
				-0.9511051177978516,
				-0.9458944797515869,
				-1.4639824628829956
			],
			"type":"VEC3"
		},
		{
			"bufferView":9,
			"componentType":5126,
			"count":958,
			"type":"VEC3"
		},
		{
			"bufferView":10,
			"componentType":5126,
			"count":958,
			"type":"VEC2"
		},
		{
			"bufferView":11,
			"componentType":5123,
			"count":2058,
			"type":"SCALAR"
		},
		{
			"bufferView":12,
			"componentType":5126,
			"count":32,
			"max":[
				34.265533447265625,
				0,
				34.265533447265625
			],
			"min":[
				-34.265533447265625,
				0,
				-34.265533447265625
			],
			"type":"VEC3"
		},
		{
			"bufferView":13,
			"componentType":5126,
			"count":32,
			"type":"VEC3"
		},
		{
			"bufferView":14,
			"componentType":5126,
			"count":32,
			"type":"VEC2"
		},
		{
			"bufferView":15,
			"componentType":5123,
			"count":48,
			"type":"SCALAR"
		},
		{
			"bufferView":16,
			"componentType":5126,
			"count":28,
			"max":[
				34.265533447265625,
				0,
				34.265533447265625
			],
			"min":[
				-34.265533447265625,
				0,
				-34.265533447265625
			],
			"type":"VEC3"
		},
		{
			"bufferView":17,
			"componentType":5126,
			"count":28,
			"type":"VEC3"
		},
		{
			"bufferView":18,
			"componentType":5126,
			"count":28,
			"type":"VEC2"
		},
		{
			"bufferView":19,
			"componentType":5123,
			"count":42,
			"type":"SCALAR"
		},
		{
			"bufferView":20,
			"componentType":5126,
			"count":1320,
			"max":[
				10.75,
				0.8550907373428345,
				1
			],
			"min":[
				-0.25,
				0.40359097719192505,
				-1
			],
			"type":"VEC3"
		},
		{
			"bufferView":21,
			"componentType":5126,
			"count":1320,
			"type":"VEC3"
		},
		{
			"bufferView":22,
			"componentType":5126,
			"count":1320,
			"type":"VEC2"
		},
		{
			"bufferView":23,
			"componentType":5123,
			"count":2376,
			"type":"SCALAR"
		},
		{
			"bufferView":24,
			"componentType":5126,
			"count":32,
			"max":[
				34.265533447265625,
				0,
				34.265533447265625
			],
			"min":[
				-34.265533447265625,
				0,
				-34.265533447265625
			],
			"type":"VEC3"
		},
		{
			"bufferView":25,
			"componentType":5126,
			"count":32,
			"type":"VEC3"
		},
		{
			"bufferView":26,
			"componentType":5126,
			"count":32,
			"type":"VEC2"
		}
	],
	"bufferViews":[
		{
			"buffer":0,
			"byteLength":1118880,
			"byteOffset":0,
			"target":34962
		},
		{
			"buffer":0,
			"byteLength":1118880,
			"byteOffset":1118880,
			"target":34962
		},
		{
			"buffer":0,
			"byteLength":745920,
			"byteOffset":2237760,
			"target":34962
		},
		{
			"buffer":0,
			"byteLength":671328,
			"byteOffset":2983680,
			"target":34963
		},
		{
			"buffer":0,
			"byteLength":13608,
			"byteOffset":3655008,
			"target":34962
		},
		{
			"buffer":0,
			"byteLength":13608,
			"byteOffset":3668616,
			"target":34962
		},
		{
			"buffer":0,
			"byteLength":9072,
			"byteOffset":3682224,
			"target":34962
		},
		{
			"buffer":0,
			"byteLength":4296,
			"byteOffset":3691296,
			"target":34963
		},
		{
			"buffer":0,
			"byteLength":11496,
			"byteOffset":3695592,
			"target":34962
		},
		{
			"buffer":0,
			"byteLength":11496,
			"byteOffset":3707088,
			"target":34962
		},
		{
			"buffer":0,
			"byteLength":7664,
			"byteOffset":3718584,
			"target":34962
		},
		{
			"buffer":0,
			"byteLength":4116,
			"byteOffset":3726248,
			"target":34963
		},
		{
			"buffer":0,
			"byteLength":384,
			"byteOffset":3730364,
			"target":34962
		},
		{
			"buffer":0,
			"byteLength":384,
			"byteOffset":3730748,
			"target":34962
		},
		{
			"buffer":0,
			"byteLength":256,
			"byteOffset":3731132,
			"target":34962
		},
		{
			"buffer":0,
			"byteLength":96,
			"byteOffset":3731388,
			"target":34963
		},
		{
			"buffer":0,
			"byteLength":336,
			"byteOffset":3731484,
			"target":34962
		},
		{
			"buffer":0,
			"byteLength":336,
			"byteOffset":3731820,
			"target":34962
		},
		{
			"buffer":0,
			"byteLength":224,
			"byteOffset":3732156,
			"target":34962
		},
		{
			"buffer":0,
			"byteLength":84,
			"byteOffset":3732380,
			"target":34963
		},
		{
			"buffer":0,
			"byteLength":15840,
			"byteOffset":3732464,
			"target":34962
		},
		{
			"buffer":0,
			"byteLength":15840,
			"byteOffset":3748304,
			"target":34962
		},
		{
			"buffer":0,
			"byteLength":10560,
			"byteOffset":3764144,
			"target":34962
		},
		{
			"buffer":0,
			"byteLength":4752,
			"byteOffset":3774704,
			"target":34963
		},
		{
			"buffer":0,
			"byteLength":384,
			"byteOffset":3779456,
			"target":34962
		},
		{
			"buffer":0,
			"byteLength":384,
			"byteOffset":3779840,
			"target":34962
		},
		{
			"buffer":0,
			"byteLength":256,
			"byteOffset":3780224,
			"target":34962
		}
	],
	"samplers":[
		{
			"magFilter":9729,
			"minFilter":9987
		}
	],
	"buffers":[
		{
			"byteLength":3780480,
			"uri":"Racetrack.bin"
		}
	]
}
